<svg xmlns="http://www.w3.org/2000/svg" viewBox="0 0 360 110" role="img" aria-label="さくらさくり SAKURA SAKURI ロゴ">
  <defs>
    <radialGradient id="lpetal" cx="50%" cy="78%" r="75%">
      <stop offset="0%"  stop-color="#FDEFF3"/>
      <stop offset="55%" stop-color="#F4AEC0"/>
      <stop offset="100%" stop-color="#E5879F"/>
    </radialGradient>
    <radialGradient id="lcore" cx="50%" cy="50%" r="60%">
      <stop offset="0%"  stop-color="#F4DDA0"/>
      <stop offset="60%" stop-color="#D9B458"/>
      <stop offset="100%" stop-color="#9A7B2E"/>
    </radialGradient>
    <linearGradient id="ltext" x1="0" y1="0" x2="1" y2="1">
      <stop offset="0%"  stop-color="#C95E7C"/>
      <stop offset="100%" stop-color="#8E3650"/>
    </linearGradient>
  </defs>

  <!-- 紋章 -->
  <g transform="translate(55 55) scale(1.05)">
    <g fill="url(#lpetal)" stroke="#C95E7C" stroke-width="0.8" stroke-opacity="0.45">
      <path d="M0 0 C14 -6 19 -30 4.5 -43 Q0 -47 -4.5 -43 C-19 -30 -14 -6 0 0 Z"/>
      <path d="M0 0 C14 -6 19 -30 4.5 -43 Q0 -47 -4.5 -43 C-19 -30 -14 -6 0 0 Z" transform="rotate(72)"/>
      <path d="M0 0 C14 -6 19 -30 4.5 -43 Q0 -47 -4.5 -43 C-19 -30 -14 -6 0 0 Z" transform="rotate(144)"/>
      <path d="M0 0 C14 -6 19 -30 4.5 -43 Q0 -47 -4.5 -43 C-19 -30 -14 -6 0 0 Z" transform="rotate(216)"/>
      <path d="M0 0 C14 -6 19 -30 4.5 -43 Q0 -47 -4.5 -43 C-19 -30 -14 -6 0 0 Z" transform="rotate(288)"/>
    </g>
    <circle r="7" fill="url(#lcore)" stroke="#9A7B2E" stroke-width="0.6"/>
  </g>

  <!-- ワードマーク -->
  <text x="108" y="52" font-family="'Cormorant Garamond', Georgia, serif" font-size="40" font-weight="500" letter-spacing="4" fill="url(#ltext)">SAKURA</text>
  <text x="108" y="92" font-family="'Cormorant Garamond', Georgia, serif" font-size="40" font-weight="500" letter-spacing="4" fill="url(#ltext)">SAKURI</text>
  <line x1="252" y1="24" x2="252" y2="92" stroke="#D9B458" stroke-width="1"/>
  <text x="266" y="46" font-family="'Shippori Mincho B1','Hiragino Mincho ProN',serif" font-size="17" letter-spacing="3" fill="#8E3650">さくら</text>
  <text x="266" y="78" font-family="'Shippori Mincho B1','Hiragino Mincho ProN',serif" font-size="17" letter-spacing="3" fill="#8E3650">さくり</text>
</svg>
